<?xml version="1.0" standalone="no"?>
<!DOCTYPE svg PUBLIC "-//W3C//DTD SVG 20010904//EN"
 "http://www.w3.org/TR/2001/REC-SVG-20010904/DTD/svg10.dtd">
<svg version="1.0" xmlns="http://www.w3.org/2000/svg"
 width="700.000000pt" height="700.000000pt" viewBox="0 0 700.000000 700.000000"
 preserveAspectRatio="xMidYMid meet">
<metadata>
Created by potrace 1.14, written by Peter Selinger 2001-2017
</metadata>
<g transform="translate(0.000000,700.000000) scale(0.100000,-0.100000)"
fill="#000000" stroke="none">
<path d="M3690 5573 c-542 -37 -950 -342 -1071 -801 -30 -113 -37 -356 -14
-477 42 -225 152 -423 341 -617 117 -120 195 -184 459 -380 318 -236 398 -301
460 -376 103 -123 145 -234 145 -379 0 -200 -119 -364 -320 -442 -100 -39
-172 -51 -302 -51 -178 0 -315 38 -448 125 -119 78 -250 235 -318 384 l-27 58
-275 -169 c-151 -93 -281 -172 -289 -177 -19 -11 60 -161 146 -276 346 -460
919 -659 1535 -535 474 97 829 414 938 839 113 443 -27 830 -430 1189 -52 47
-219 178 -370 292 -312 236 -392 303 -468 392 -222 262 -171 594 111 723 95
43 156 55 286 55 126 0 227 -22 329 -72 82 -40 203 -153 263 -244 23 -36 47
-63 54 -60 16 6 537 326 549 336 14 14 -102 178 -194 274 -227 238 -484 354
-850 386 -111 10 -145 10 -240 3z"/>
</g>
</svg>
